<svg width="354" height="424" viewBox="0 0 354 424" fill="none" xmlns="http://www.w3.org/2000/svg">
<path d="M324.49 0.450195H139.75L0.100098 140.12L139.75 111.36C139.751 118.955 136.741 126.24 131.38 131.62L30.2101 233.14C32.8479 230.822 36.2387 229.543 39.7501 229.54C47.6001 229.54 53.9701 235.63 53.9701 243.13C53.9701 250.63 47.6001 256.71 39.7501 256.71C31.9001 256.71 25.5402 250.64 25.5402 243.13C25.5656 239.878 26.7946 236.75 28.9901 234.35L0.120117 263.35V395.93C0.120117 411.13 13.1201 423.56 29.0201 423.56H324.5C340.41 423.56 353.41 411.13 353.41 395.93V28.0802C353.4 12.8902 340.38 0.450195 324.49 0.450195ZM39.7501 392.6C31.9101 392.6 25.5402 386.53 25.5402 379.03C25.5402 371.53 31.9101 365.43 39.7501 365.43C47.5901 365.43 53.9701 371.52 53.9701 379.03C53.9701 386.54 47.5801 392.6 39.7501 392.6ZM39.7501 324.68C31.9101 324.68 25.5402 318.6 25.5402 311.1C25.5402 303.6 31.8901 297.54 39.7501 297.54C47.6101 297.54 53.9701 303.62 53.9701 311.13C53.9701 318.64 47.5801 324.68 39.7501 324.68Z" fill="#F2F7F9"/>
<path d="M303.24 181.21H93.74V194.51H303.24V181.21Z" fill="#DADFE2"/>
<path d="M303.24 236.64H93.74V249.94H303.24V236.64Z" fill="#DADFE2"/>
<path d="M303.24 292.06H93.74V305.36H303.24V292.06Z" fill="#DADFE2"/>
<path d="M303.24 347.49H93.74V360.79H303.24V347.49Z" fill="#DADFE2"/>
<path d="M303.24 70.3599H176.75V83.6599H303.24V70.3599Z" fill="#DADFE2"/>
<path d="M303.24 125.79H176.75V139.09H303.24V125.79Z" fill="#DADFE2"/>
<path d="M30.2101 233.14L131.39 131.62C136.751 126.24 139.761 118.955 139.76 111.36L0.100098 140.12V263.35L28.9701 234.35C29.359 233.922 29.773 233.518 30.2101 233.14ZM39.7301 161.64C47.5801 161.64 53.9501 167.72 53.9501 175.23C53.9501 182.74 47.5801 188.81 39.7301 188.81C31.8801 188.81 25.5201 182.73 25.5201 175.23C25.5201 167.73 31.8901 161.64 39.7501 161.64H39.7301Z" fill="#DDE2E5"/>
<path d="M139.75 0.450195L0.100098 140.11H111C118.624 140.108 125.935 137.078 131.327 131.687C136.718 126.295 139.747 118.984 139.75 111.36V0.450195Z" fill="#FD8A29"/>
</svg>
