<svg width="420" height="440" viewBox="0 0 420 440" fill="none" xmlns="http://www.w3.org/2000/svg">
<path d="M9.97002 384.67C19.97 416.95 37.97 439.54 60.06 439.54H355.12C384 439.54 405.12 405.65 414.12 362.07C423.56 316.88 420.12 261.47 399.2 223.28C397.42 219.78 395.37 216.55 393.31 213.28L293.53 67C263.84 23.69 227.98 0 191.03 0C170.91 0 151.2 7.00001 132.73 20.17C124.846 25.6786 117.554 31.9889 110.97 39C86.61 64.28 65.26 101.4 49.38 147.4L11.2 257.98C-3.02997 299.13 -1.65998 348.09 9.97002 384.67Z" fill="#FD8A29"/>
<path d="M9.97002 384.67C19.97 416.95 37.97 439.54 60.06 439.54H93.18L81 229.73L130.31 116.89L132.73 20.1899C124.846 25.6985 117.554 32.0089 110.97 39.02C86.61 64.3 65.26 101.42 49.38 147.42L11.2 257.98C-3.02997 299.13 -1.65998 348.09 9.97002 384.67Z" fill="#EC772A"/>
<path d="M206.49 330.74L291.72 334.65L355.11 439.56H150.71L206.49 330.74Z" fill="#C8601A"/>
<path d="M150.75 439.54H60.06C38.06 439.54 19.97 416.92 9.97998 384.67L80.98 229.72L206.46 330.72L150.75 439.54Z" fill="#D8671D"/>
<path d="M291.75 334.65C291.75 334.65 380.2 242.91 399.22 223.28C420.16 261.47 423.58 316.88 414.14 362.07C405.14 405.63 384.04 439.56 355.14 439.56" fill="#E77B2A"/>
</svg>
