<svg width="368" height="424" viewBox="0 0 368 424" fill="none" xmlns="http://www.w3.org/2000/svg">
<path d="M229.95 322.07C225.02 335.68 279.39 274.43 265.29 281.73L24.1899 0.450195C11.7772 21.1357 6.63622 45.3771 9.58426 69.3202C12.5323 93.2633 23.4002 115.534 40.4599 132.59L229.95 322.07Z" fill="#E9EEF1"/>
<path d="M219.94 350.04C219.932 335.493 224.238 321.271 232.314 309.172C240.39 297.074 251.873 287.642 265.31 282.069C278.747 276.497 293.534 275.035 307.802 277.868C322.07 280.701 335.178 287.702 345.467 297.985C355.755 308.268 362.763 321.372 365.604 335.638C368.445 349.905 366.991 364.693 361.426 378.133C355.861 391.573 346.435 403.061 334.341 411.144C322.246 419.226 308.027 423.54 293.48 423.54C273.988 423.514 255.301 415.76 241.516 401.978C227.731 388.197 219.972 369.512 219.94 350.02M252.5 350.02C252.5 358.129 254.905 366.056 259.41 372.798C263.915 379.541 270.318 384.796 277.81 387.899C285.302 391.002 293.545 391.814 301.499 390.232C309.452 388.65 316.757 384.745 322.491 379.011C328.225 373.277 332.13 365.972 333.712 358.019C335.294 350.065 334.482 341.822 331.379 334.33C328.276 326.838 323.021 320.435 316.278 315.93C309.536 311.425 301.609 309.02 293.5 309.02C282.626 309.02 272.198 313.34 264.509 321.029C256.82 328.718 252.5 339.146 252.5 350.02Z" fill="#FD8A29"/>
<path d="M204.83 211.21L164.22 256.34L202.95 295.09L242.67 255.36L204.83 211.21Z" fill="#CCD1D3"/>
<path d="M326.56 132.59C343.62 115.534 354.488 93.2633 357.436 69.3202C360.384 45.3771 355.243 21.1357 342.83 0.450195L101.75 281.73C87.65 274.43 142 335.68 137.09 322.07L326.56 132.59Z" fill="#F2F7F9"/>
<path d="M73.53 276.54C54.0334 276.567 35.3436 284.327 21.5621 298.118C7.78063 311.908 0.0332447 330.603 0.0200195 350.1C0.0200195 351.49 0.0200147 352.84 0.140015 354.19C1.19048 372.95 9.38307 390.597 23.0358 403.506C36.6885 416.416 54.7653 423.609 73.5551 423.609C92.3448 423.609 110.422 416.416 124.074 403.506C137.727 390.597 145.92 372.95 146.97 354.19C147.05 352.84 147.09 351.49 147.09 350.1C147.071 330.596 139.315 311.897 125.524 298.106C111.733 284.315 93.0337 276.559 73.53 276.54ZM114.31 354.11V354.28C113.25 364.356 108.497 373.682 100.968 380.461C93.4386 387.24 83.6662 390.991 73.535 390.991C63.4038 390.991 53.6313 387.24 46.1021 380.461C38.5728 373.682 33.8199 364.356 32.76 354.28V354.11C32.63 352.8 32.55 351.45 32.55 350.11C32.55 339.236 36.8696 328.808 44.5586 321.119C52.2476 313.43 62.6762 309.11 73.55 309.11C84.4239 309.11 94.8524 313.43 102.541 321.119C110.23 328.808 114.55 339.236 114.55 350.11C114.51 351.4 114.43 352.75 114.31 354.06V354.11Z" fill="#FD8A29"/>
<path d="M183.51 210.46C187.135 210.46 190.679 211.535 193.694 213.549C196.708 215.563 199.057 218.426 200.445 221.775C201.832 225.125 202.195 228.81 201.488 232.366C200.781 235.922 199.035 239.188 196.471 241.751C193.908 244.315 190.642 246.06 187.086 246.768C183.531 247.475 179.845 247.112 176.495 245.725C173.146 244.337 170.283 241.988 168.269 238.974C166.255 235.959 165.18 232.415 165.18 228.79C165.179 226.382 165.652 223.998 166.573 221.774C167.493 219.549 168.844 217.528 170.546 215.826C172.248 214.123 174.27 212.773 176.494 211.853C178.719 210.932 181.103 210.459 183.51 210.46Z" fill="#DBE0E2"/>
</svg>
